<svg width="54" height="55" viewBox="0 0 54 55" fill="none" xmlns="http://www.w3.org/2000/svg">
<path fill-rule="evenodd" clip-rule="evenodd" d="M46.181 23.84C45.347 22.3956 43.8185 21.9207 42.3594 21.7167C40.8886 21.5111 38.9201 21.5111 36.5392 21.5112L36.4037 21.5112C34.9859 21.5112 34.059 21.4972 33.3838 21.4033C32.773 21.3184 32.5788 21.1927 32.496 21.1194C32.4353 21.0562 32.3272 20.9083 32.2535 20.3751C32.1667 19.7464 32.1629 18.8844 32.1629 17.5027V16.6601C32.163 13.0882 32.163 10.2268 31.8881 8.18674C31.6301 6.27185 31.0167 4.1212 28.8923 3.47017C26.8052 2.83058 25.0547 4.20207 23.694 5.616C22.2445 7.12226 20.5226 9.45202 18.3667 12.369L11.3085 21.9187C9.9352 23.7766 8.79042 25.3253 8.10833 26.606C7.42459 27.8898 6.92698 29.414 7.6854 30.9347L7.68804 30.9402L7.69603 30.9565L7.70512 30.9745L7.71406 30.9917L7.72385 31.0102L7.73379 31.0285L7.74322 31.0454L7.75317 31.0629L7.7623 31.0784L7.76564 31.084C8.59252 32.516 10.1143 33.0174 11.5866 33.2421C13.1039 33.4738 15.1284 33.4886 17.5837 33.4886C19.016 33.4886 19.9294 33.4919 20.6001 33.5774C21.1927 33.6529 21.3699 33.7694 21.4459 33.8366C21.5131 33.9068 21.6311 34.071 21.7143 34.6235C21.8096 35.2558 21.8245 36.1313 21.8245 37.4972L21.8245 38.3394C21.8244 41.9114 21.8243 44.7729 22.0992 46.8129C22.3572 48.7278 22.9705 50.8785 25.0949 51.5296C27.182 52.1692 28.9326 50.7977 30.2933 49.3838C31.7428 47.8775 33.4648 45.5477 35.6207 42.6307L42.5943 33.1957C44.0135 31.2755 45.1808 29.6712 45.8692 28.336C46.5429 27.0293 47.0128 25.4962 46.2614 23.9895L46.2588 23.984L46.2508 23.9677L46.2416 23.9496L46.2327 23.9323L46.2228 23.9138L46.2129 23.8954L46.2034 23.8784L46.1934 23.8609L46.1842 23.8452L46.181 23.84ZM26.1258 7.95626C24.8479 9.28418 23.2555 11.4328 20.997 14.4884L14.1072 23.8102C12.6274 25.8124 11.6373 27.1595 11.0872 28.1925C10.8194 28.6953 10.7189 29.0125 10.6903 29.2045C10.6726 29.3231 10.6834 29.3766 10.6975 29.4109C10.7519 29.4911 10.9882 29.7367 12.096 29.9058C13.3063 30.0906 15.0465 30.1136 17.5837 30.1136L17.6871 30.1136C18.9857 30.1136 20.1171 30.1135 21.027 30.2295C22.0016 30.3537 22.9698 30.6363 23.7714 31.3902L23.7845 31.4026L23.7973 31.4152C24.5849 32.1882 24.905 33.1467 25.0517 34.121C25.1919 35.0521 25.1995 36.1975 25.1995 37.4972L25.1995 38.1937C25.1994 41.9443 25.2032 44.5756 25.4439 46.3623C25.5638 47.2519 25.725 47.7738 25.8794 48.0652C25.9951 48.2836 26.0618 48.2979 26.0805 48.3019L26.0838 48.3027L26.0872 48.3038C26.1108 48.312 26.1937 48.3406 26.4495 48.2119C26.769 48.0511 27.2254 47.7044 27.8614 47.0435C29.1394 45.7156 30.7319 43.567 32.9904 40.5113L39.8802 31.1896C41.3516 29.1989 42.3319 27.832 42.8694 26.7894C43.3301 25.8959 43.28 25.5933 43.2493 25.5129C43.1988 25.4391 42.9718 25.2102 41.8921 25.0592C40.6835 24.8902 38.9544 24.8862 36.4037 24.8862C35.0473 24.8862 33.8709 24.8785 32.919 24.7462C31.9361 24.6095 30.9657 24.3137 30.171 23.5663L30.1579 23.554L30.1451 23.5414C29.3504 22.7613 29.0439 21.8041 28.9103 20.8368C28.7877 19.9496 28.7878 18.8509 28.7879 17.6115L28.7879 16.8059C28.7879 13.0554 28.7841 10.4241 28.5434 8.63746C28.4235 7.74782 28.2622 7.22598 28.1078 6.93456C27.9921 6.71617 27.9255 6.70186 27.9068 6.69785L27.9034 6.69705L27.9001 6.69591C27.8765 6.68778 27.7936 6.65915 27.5378 6.78786C27.2183 6.94863 26.7619 7.29533 26.1258 7.95626Z" fill="white" fill-opacity="0.88"/>
</svg>
