<svg width="36" height="36" viewBox="0 0 36 36" fill="none" xmlns="http://www.w3.org/2000/svg">
<path d="M19.4857 2.76306C19.583 2.16212 20.1511 1.75446 20.752 1.85175C20.7892 1.85887 20.9089 1.88124 20.9716 1.89521C21.097 1.92314 21.272 1.96614 21.4901 2.02967C21.9263 2.15671 22.5356 2.366 23.2669 2.70129C24.7312 3.37258 26.6797 4.54687 28.7017 6.56888C30.7237 8.59088 31.898 10.5394 32.5693 12.0036C32.9046 12.735 33.1139 13.3443 33.2409 13.7805C33.3045 13.9986 33.3475 14.1735 33.3754 14.299C33.3893 14.3617 33.3996 14.412 33.4067 14.4492L33.4151 14.4951C33.5124 15.096 33.1085 15.6876 32.5075 15.7849C31.9083 15.8819 31.3438 15.4762 31.2441 14.8781C31.241 14.862 31.2326 14.8189 31.2236 14.7782C31.2054 14.6968 31.1741 14.5677 31.1243 14.397C31.0249 14.0555 30.8521 13.548 30.5653 12.9224C29.9924 11.6727 28.9621 9.947 27.1429 8.12772C25.3236 6.30845 23.5979 5.2782 22.3482 4.70527C21.7226 4.41845 21.2151 4.24571 20.8736 4.14625C20.7029 4.09653 20.4883 4.04728 20.4069 4.02915C19.8088 3.92947 19.3887 3.36229 19.4857 2.76306Z" fill="#04183B"/>
<path fill-rule="evenodd" clip-rule="evenodd" d="M19.8182 7.83272C19.9855 7.24737 20.5956 6.90843 21.1809 7.07568L20.8781 8.13553C21.1809 7.07568 21.1809 7.07568 21.1809 7.07568L21.183 7.07628L21.1853 7.07693L21.1902 7.07836L21.2016 7.08176L21.2307 7.09082C21.2528 7.09791 21.2805 7.10714 21.3135 7.11885C21.3795 7.14227 21.4667 7.17558 21.5737 7.22144C21.7878 7.3132 22.0804 7.45491 22.4398 7.66759C23.1591 8.09333 24.1412 8.80052 25.2948 9.95419C26.4485 11.1079 27.1557 12.0899 27.5814 12.8092C27.7941 13.1686 27.9358 13.4612 28.0276 13.6753C28.0734 13.7823 28.1067 13.8695 28.1302 13.9355C28.1419 13.9685 28.1511 13.9962 28.1582 14.0184L28.1672 14.0474L28.1706 14.0588L28.1721 14.0637L28.1727 14.066C28.1727 14.066 28.1733 14.0681 27.1135 14.3709L28.1733 14.0681C28.3406 14.6534 28.0016 15.2635 27.4163 15.4308C26.8359 15.5966 26.2312 15.2648 26.058 14.6886L26.0525 14.6727C26.0447 14.6507 26.0285 14.6072 26.0013 14.5437C25.9469 14.4168 25.8483 14.2092 25.6842 13.9321C25.3565 13.3784 24.7647 12.5417 23.736 11.513C22.7073 10.4843 21.8706 9.89246 21.3169 9.56477C21.0398 9.40073 20.8322 9.30211 20.7053 9.24773C20.6418 9.22052 20.5984 9.2043 20.5763 9.19647L20.5604 9.19104C19.9842 9.01779 19.6524 8.41309 19.8182 7.83272Z" fill="#04183B"/>
<path fill-rule="evenodd" clip-rule="evenodd" d="M7.35757 6.47663C9.82676 4.00744 13.9935 4.19515 15.7128 7.27581L16.6667 8.98495C17.7894 10.9967 17.311 13.535 15.6674 15.1986C15.6455 15.2286 15.5295 15.3975 15.515 15.6927C15.4966 16.0694 15.6304 16.9406 16.9802 18.2904C18.3296 19.6398 19.2006 19.7739 19.5775 19.7556C19.8729 19.7412 20.0419 19.6251 20.072 19.6032C21.7356 17.9596 24.2739 17.4812 26.2856 18.6039L27.9948 19.5578C31.0754 21.277 31.2631 25.4438 28.794 27.913C27.4732 29.2338 25.717 30.4073 23.6533 30.4855C20.595 30.6015 15.5168 29.8117 10.4879 24.7827C5.45889 19.7537 4.6691 14.6756 4.78504 11.6173C4.86328 9.55354 6.03682 7.79738 7.35757 6.47663ZM13.7878 8.35014C12.9074 6.77266 10.5416 6.41024 8.91642 8.03547C7.77689 9.17499 7.03607 10.4328 6.988 11.7008C6.89131 14.2512 7.52099 18.6982 12.0467 23.2239C16.5724 27.7496 21.0194 28.3793 23.5698 28.2826C24.8378 28.2345 26.0956 27.4937 27.2351 26.3542C28.8603 24.7289 28.4979 22.3632 26.9204 21.4828L25.2113 20.529C24.1481 19.9356 22.6547 20.138 21.6064 21.1863C21.5034 21.2892 20.8478 21.9009 19.6846 21.9575C18.4939 22.0154 17.0525 21.4804 15.4213 19.8492C13.7897 18.2176 13.2548 16.7758 13.3131 15.5849C13.3701 14.4216 13.9818 13.7667 14.0842 13.6643C15.1325 12.6159 15.335 11.1225 14.7416 10.0593L13.7878 8.35014Z" fill="#04183B"/>
</svg>
