<svg width="21" height="21" viewBox="0 0 21 21" fill="none" xmlns="http://www.w3.org/2000/svg">
<path d="M11.1618 1.58273C11.2175 1.2385 11.5429 1.00498 11.8871 1.06071C11.9084 1.06479 11.977 1.0776 12.0129 1.0856C12.0848 1.1016 12.185 1.12623 12.3099 1.16262C12.5598 1.2354 12.9088 1.35529 13.3277 1.54735C14.1665 1.93188 15.2827 2.60455 16.4409 3.7628C17.5992 4.92106 18.2718 6.03724 18.6564 6.87598C18.8484 7.29492 18.9683 7.64396 19.0411 7.89381C19.0775 8.01875 19.1021 8.11896 19.1181 8.1908C19.1261 8.22672 19.132 8.25556 19.136 8.27687L19.1409 8.30313C19.1966 8.64737 18.9652 8.98624 18.621 9.04197C18.2777 9.09754 17.9544 8.86515 17.8973 8.52253C17.8955 8.51334 17.8907 8.48862 17.8855 8.46531C17.8751 8.41868 17.8571 8.34475 17.8287 8.24696C17.7717 8.05136 17.6727 7.76063 17.5084 7.40226C17.1803 6.68641 16.5901 5.69788 15.548 4.65575C14.5058 3.61362 13.5173 3.02347 12.8015 2.69528C12.4431 2.53098 12.1524 2.43203 11.9568 2.37506C11.859 2.34658 11.7361 2.31837 11.6894 2.30798C11.3468 2.25088 11.1062 1.92598 11.1618 1.58273Z" fill="white"/>
<path fill-rule="evenodd" clip-rule="evenodd" d="M11.3522 4.48677C11.448 4.15147 11.7975 3.95731 12.1328 4.05311L11.9593 4.66023C12.1328 4.05311 12.1328 4.05311 12.1328 4.05311L12.134 4.05346L12.1353 4.05383L12.1381 4.05465L12.1446 4.0566L12.1613 4.06179C12.174 4.06585 12.1898 4.07114 12.2087 4.07784C12.2466 4.09126 12.2965 4.11034 12.3578 4.13661C12.4805 4.18917 12.6481 4.27035 12.8539 4.39218C13.266 4.63605 13.8285 5.04115 14.4894 5.702C15.1502 6.36285 15.5553 6.92538 15.7992 7.33745C15.921 7.5433 16.0022 7.71089 16.0548 7.83354C16.081 7.89483 16.1001 7.94481 16.1135 7.98262C16.1202 8.00152 16.1255 8.01737 16.1296 8.03006L16.1348 8.04672L16.1367 8.05325L16.1375 8.05606L16.1379 8.05734C16.1379 8.05734 16.1382 8.05856 15.5311 8.23202L16.1382 8.05856C16.234 8.39386 16.0399 8.74333 15.7046 8.83913C15.3721 8.93412 15.0258 8.74406 14.9265 8.41399L14.9234 8.40492C14.9189 8.39226 14.9096 8.36736 14.894 8.33099C14.8629 8.2583 14.8064 8.13941 14.7124 7.98063C14.5247 7.66346 14.1857 7.18422 13.5964 6.59495C13.0071 6.00567 12.5279 5.66664 12.2107 5.47893C12.052 5.38496 11.9331 5.32847 11.8604 5.29732C11.824 5.28174 11.7991 5.27245 11.7864 5.26796L11.7774 5.26485C11.4473 5.16561 11.2572 4.81922 11.3522 4.48677Z" fill="white"/>
<path fill-rule="evenodd" clip-rule="evenodd" d="M4.21442 3.70996C5.62884 2.29555 8.01569 2.40307 9.00053 4.16775L9.54692 5.1468C10.1901 6.29918 9.91599 7.75317 8.97451 8.70616C8.96197 8.72333 8.89552 8.82009 8.88724 8.98916C8.87667 9.20495 8.95331 9.704 9.72652 10.4772C10.4995 11.2502 10.9985 11.327 11.2143 11.3165C11.3835 11.3083 11.4804 11.2418 11.4976 11.2292C12.4506 10.2877 13.9045 10.0137 15.0569 10.6568L16.036 11.2032C17.8007 12.188 17.9082 14.5749 16.4938 15.9893C15.7372 16.7459 14.7312 17.4181 13.5491 17.4629C11.7972 17.5293 8.88827 17.0769 6.00754 14.1962C3.12681 11.3154 2.6744 8.40656 2.74081 6.65467C2.78563 5.4725 3.45786 4.46652 4.21442 3.70996ZM7.89782 4.78316C7.39352 3.87954 6.03835 3.67193 5.10737 4.60291C4.45462 5.25566 4.03026 5.97615 4.00272 6.7025C3.94734 8.16345 4.30803 10.7108 6.90049 13.3032C9.49294 15.8957 12.0403 16.2564 13.5012 16.201C14.2276 16.1735 14.9481 15.7491 15.6008 15.0963C16.5318 14.1654 16.3242 12.8102 15.4206 12.3059L14.4415 11.7595C13.8325 11.4196 12.977 11.5356 12.3765 12.1361C12.3175 12.195 11.942 12.5454 11.2757 12.5778C10.5936 12.611 9.76792 12.3045 8.83357 11.3701C7.89891 10.4355 7.59253 9.6096 7.62593 8.9274C7.65856 8.26104 8.00897 7.8859 8.0676 7.82726C8.66813 7.22673 8.7841 6.37123 8.44421 5.76221L7.89782 4.78316Z" fill="white"/>
</svg>
