<svg width="50" height="49" viewBox="0 0 50 49" fill="none" xmlns="http://www.w3.org/2000/svg">
<path fill-rule="evenodd" clip-rule="evenodd" d="M37.4751 0.870801C35.8635 -0.0512142 34.1409 0.300344 32.5245 0.965641C30.9362 1.61937 28.9814 2.77706 26.5933 4.19144L25.1819 5.02725C23.6375 5.94186 23.2774 6.11678 22.9276 6.16059C22.5902 6.20285 22.2304 6.1281 20.5624 5.61481L19.0326 5.14407C16.4636 4.35342 14.347 3.70204 12.6734 3.45444C10.938 3.19769 9.2237 3.30238 7.85786 4.55248C6.50125 5.79414 6.22404 7.49421 6.29222 9.25997C6.35833 10.9724 6.77208 13.1765 7.27637 15.8631L7.57489 17.4537C7.90021 19.187 7.94107 19.5793 7.85946 19.9375C7.77591 20.3041 7.55746 20.6606 6.50503 22.1209L5.54174 23.4574C3.90602 25.7269 2.57006 27.5804 1.76565 29.115C0.946938 30.6769 0.436936 32.352 1.15588 34.0472C1.8863 35.7693 3.45967 36.5189 5.14502 36.9356C6.78264 37.3406 9.00005 37.5435 11.6927 37.7898L13.2969 37.9367C15.0525 38.0974 15.4079 38.1659 15.6848 38.3243C15.9595 38.4815 16.1943 38.7481 17.2128 40.1749L18.1442 41.4795C19.705 43.666 20.9921 45.4691 22.1661 46.6733C23.3791 47.9176 24.8183 48.8854 26.6729 48.6531C28.4955 48.4248 29.6986 47.1617 30.6563 45.6748C31.5952 44.2172 32.5472 42.1436 33.7127 39.6049L34.399 38.1101C34.6465 37.5711 34.8344 37.1701 34.9851 36.8654C35.0084 36.8918 35.0326 36.9176 35.0579 36.9428L44.0579 45.9428C44.7169 46.6018 45.7853 46.6018 46.4443 45.9428C47.1034 45.2838 47.1034 44.2153 46.4443 43.5563L37.7944 34.9064C37.8471 34.8879 37.9011 34.8689 37.9566 34.8494L39.4934 34.3112C42.0955 33.4 44.2264 32.6538 45.7535 31.8556C47.3226 31.0355 48.6691 29.9518 49.077 28.1619C49.4899 26.3502 48.7158 24.8144 47.6218 23.4511C46.5675 22.1372 44.9391 20.6457 42.9648 18.8373L41.787 17.7585C40.5019 16.5812 40.2626 16.3142 40.1343 16.0119C40.0017 15.6991 39.9736 15.3124 40.0007 13.5259L40.0255 11.894C40.0675 9.13968 40.1018 6.88107 39.8786 5.18842C39.6509 3.46164 39.0926 1.79623 37.4751 0.870801ZM28.1911 7.16764C30.7312 5.66334 32.4748 4.63577 33.8091 4.08662C35.1421 3.53795 35.5805 3.67517 35.799 3.80023C36.0117 3.92187 36.3465 4.21822 36.5326 5.62964C36.7194 7.04589 36.6933 9.05287 36.6487 11.9863L36.6218 13.7439C36.5991 15.1098 36.5797 16.2745 37.0272 17.3297C37.4789 18.3946 38.3309 19.1726 39.3137 20.0702L39.5074 20.2472L40.5766 21.2267C42.6866 23.1595 44.1176 24.4768 44.9895 25.5634C45.841 26.6244 45.8579 27.098 45.7863 27.412C45.7098 27.7479 45.4568 28.2025 44.1902 28.8645C42.9073 29.535 41.0126 30.2032 38.2457 31.1722L36.5973 31.7493C35.2952 32.2035 34.2067 32.5832 33.3535 33.3641C32.5037 34.1419 32.0216 35.1953 31.4408 36.4643L30.7034 38.0708C29.4658 40.7661 28.6117 42.6166 27.8189 43.8472C27.0296 45.0727 26.5605 45.2658 26.2535 45.3042C25.9787 45.3386 25.5361 45.2953 24.5827 44.3174C23.6118 43.3215 22.4736 41.7354 20.8052 39.3983L19.9597 38.214L19.8047 37.9964C19.0331 36.912 18.3607 35.9669 17.3609 35.3949C16.3632 34.8241 15.2055 34.7199 13.8722 34.6L13.6045 34.5757L12.1468 34.4423C9.27095 34.1791 7.31318 33.9951 5.9552 33.6593C4.61534 33.328 4.36423 32.9681 4.26298 32.7294C4.15025 32.4636 4.07678 31.9756 4.75488 30.6819C5.43401 29.3863 6.6242 27.7278 8.36095 25.3181L9.39729 23.8805C10.2147 22.7494 10.8946 21.8083 11.1501 20.6874C11.4074 19.5584 11.1935 18.4272 10.9398 17.0847L10.6196 15.3797C10.0827 12.5194 9.72003 10.5626 9.66471 9.12976C9.61031 7.72085 9.87764 7.27908 10.1365 7.04212C10.3862 6.8136 10.8235 6.59249 12.1795 6.7931C13.5673 6.99842 15.4359 7.56846 18.1791 8.41261L19.8185 8.91733C21.0977 9.313 22.1981 9.65334 23.347 9.50943C24.4844 9.36698 25.4856 8.77223 26.6711 8.06804L28.1911 7.16764Z" fill="white" fill-opacity="0.88"/>
</svg>
