<svg width="46" height="47" viewBox="0 0 46 47" fill="none" xmlns="http://www.w3.org/2000/svg">
<path fill-rule="evenodd" clip-rule="evenodd" d="M30.178 2.27974C30.914 0.406755 33.5599 0.406751 34.2958 2.27974L35.2588 4.73046L37.6993 5.69653C39.5654 6.43522 39.5654 9.08105 37.6993 9.81975L35.2588 10.7858L34.2958 13.2365C33.5599 15.1095 30.914 15.1095 30.178 13.2365L29.215 10.7858L26.7746 9.81975C24.9085 9.08106 24.9085 6.43522 26.7746 5.69653L29.215 4.73046L30.178 2.27974ZM32.2369 3.19225L33.1701 5.567C33.3942 6.13755 33.8448 6.5906 34.4158 6.81664L36.7942 7.75814L34.4158 8.69964C33.8448 8.92567 33.3943 9.37872 33.1701 9.94927L32.2369 12.324L31.3038 9.94927C31.0796 9.37872 30.629 8.92567 30.058 8.69964L27.6796 7.75814L30.058 6.81664C30.629 6.5906 31.0796 6.13755 31.3038 5.567L32.2369 3.19225Z" fill="white" fill-opacity="0.88"/>
<path fill-rule="evenodd" clip-rule="evenodd" d="M2.45694 4.95694C5.64953 1.76435 10.8257 1.76435 14.0183 4.95694L41.5431 32.4817C44.7356 35.6743 44.7356 40.8505 41.5431 44.0431C38.3505 47.2356 33.1743 47.2356 29.9817 44.0431L2.45694 16.5183C-0.735648 13.3257 -0.735648 8.14953 2.45694 4.95694ZM11.6319 7.34343C9.75728 5.46886 6.718 5.46886 4.84343 7.34343C2.96886 9.218 2.96886 12.2573 4.84343 14.1318L8.41255 17.701L15.201 10.9126L11.6319 7.34343ZM32.3681 41.6566L10.799 20.0875L17.5875 13.299L39.1566 34.8681C41.0311 36.7427 41.0311 39.782 39.1566 41.6566C37.282 43.5311 34.2427 43.5311 32.3681 41.6566Z" fill="white" fill-opacity="0.88"/>
<path fill-rule="evenodd" clip-rule="evenodd" d="M42.9969 17.6298C42.2609 15.7569 39.6151 15.7569 38.8791 17.6298L38.5314 18.5147L37.651 18.8632C35.7849 19.6019 35.7849 22.2477 37.651 22.9864L38.5314 23.3349L38.8791 24.2198C39.6151 26.0928 42.2609 26.0928 42.9969 24.2198L43.3446 23.3349L44.225 22.9864C46.0911 22.2477 46.0911 19.6019 44.225 18.8632L43.3446 18.5147L42.9969 17.6298ZM40.938 18.5424L40.6202 19.3512C40.396 19.9218 39.9454 20.3748 39.3744 20.6009L38.5561 20.9248L39.3744 21.2487C39.9454 21.4748 40.396 21.9278 40.6202 22.4984L40.938 23.3073L41.2558 22.4984C41.48 21.9278 41.9306 21.4748 42.5016 21.2487L43.3199 20.9248L42.5016 20.6009C41.9306 20.3748 41.48 19.9218 41.2558 19.3512L40.938 18.5424Z" fill="white" fill-opacity="0.88"/>
<path fill-rule="evenodd" clip-rule="evenodd" d="M5.50263 31.5297C6.2386 29.6568 8.88447 29.6568 9.62044 31.5297L9.96814 32.4146L10.8485 32.7631C12.7146 33.5018 12.7146 36.1476 10.8485 36.8863L9.96814 37.2348L9.62044 38.1197C8.88447 39.9927 6.2386 39.9927 5.50263 38.1197L5.15493 37.2348L4.27456 36.8863C2.40848 36.1476 2.40848 33.5018 4.27456 32.7631L5.15493 32.4146L5.50263 31.5297ZM7.24369 33.2511L7.56154 32.4423L7.87938 33.2511C8.10357 33.8217 8.55415 34.2747 9.12515 34.5008L9.94347 34.8247L9.12515 35.1486C8.55415 35.3747 8.10357 35.8277 7.87938 36.3983L7.56154 37.2072L7.24369 36.3983C7.0195 35.8277 6.56892 35.3747 5.99792 35.1486L5.1796 34.8247L5.99792 34.5008C6.56892 34.2747 7.0195 33.8217 7.24369 33.2511Z" fill="white" fill-opacity="0.88"/>
</svg>
