<svg width="26" height="26" viewBox="0 0 26 26" fill="none" xmlns="http://www.w3.org/2000/svg">
<path d="M13.6478 0.928278C13.7333 0.400129 14.2326 0.0418535 14.7608 0.127359C14.7935 0.133616 14.8986 0.153276 14.9538 0.16555C15.064 0.190096 15.2177 0.227888 15.4094 0.283721C15.7928 0.395376 16.3283 0.579316 16.971 0.873992C18.2579 1.46397 19.9704 2.49601 21.7475 4.27309C23.5246 6.05016 24.5566 7.76267 25.1466 9.04953C25.4413 9.69228 25.6252 10.2278 25.7368 10.6112C25.7927 10.8028 25.8305 10.9566 25.855 11.0668C25.8673 11.1219 25.8763 11.1662 25.8825 11.1989L25.8899 11.2392C25.9755 11.7673 25.6204 12.2872 25.0923 12.3727C24.5656 12.458 24.0695 12.1014 23.9819 11.5758C23.9792 11.5617 23.9718 11.5237 23.9638 11.488C23.9479 11.4164 23.9203 11.303 23.8766 11.153C23.7892 10.8529 23.6374 10.4068 23.3853 9.85698C22.8818 8.75867 21.9764 7.24201 20.3775 5.64311C18.7786 4.0442 17.2619 3.13875 16.1636 2.63522C15.6137 2.38314 15.1677 2.23133 14.8676 2.14392C14.7176 2.10022 14.529 2.05693 14.4574 2.041C13.9318 1.9534 13.5626 1.45492 13.6478 0.928278Z" fill="white"/>
<path fill-rule="evenodd" clip-rule="evenodd" d="M13.9401 5.38384C14.0871 4.8694 14.6232 4.57151 15.1377 4.7185L14.8715 5.64997C15.1377 4.7185 15.1377 4.7185 15.1377 4.7185L15.1395 4.71903L15.1415 4.7196L15.1458 4.72086L15.1558 4.72385L15.1814 4.73181C15.2009 4.73804 15.2252 4.74615 15.2542 4.75644C15.3122 4.77703 15.3889 4.8063 15.4829 4.8466C15.6711 4.92725 15.9282 5.05179 16.2441 5.23871C16.8763 5.61289 17.7393 6.23441 18.7533 7.24833C19.7672 8.26225 20.3887 9.12533 20.7629 9.75755C20.9498 10.0734 21.0743 10.3305 21.155 10.5187C21.1953 10.6127 21.2246 10.6894 21.2452 10.7474C21.2555 10.7764 21.2636 10.8007 21.2698 10.8202L21.2778 10.8458L21.2807 10.8558L21.282 10.8601L21.2826 10.8621C21.2826 10.8621 21.2831 10.8639 20.3516 11.1301L21.2831 10.8639C21.4301 11.3784 21.1322 11.9145 20.6178 12.0615C20.1077 12.2073 19.5762 11.9157 19.424 11.4092L19.4192 11.3953C19.4123 11.3759 19.3981 11.3377 19.3742 11.2819C19.3264 11.1704 19.2397 10.988 19.0955 10.7444C18.8075 10.2577 18.2874 9.52245 17.3833 8.61835C16.4791 7.71424 15.7439 7.19408 15.2572 6.90608C15.0136 6.76191 14.8312 6.67524 14.7197 6.62745C14.6639 6.60353 14.6257 6.58928 14.6063 6.58239L14.5924 6.57762C14.0859 6.42536 13.7943 5.89391 13.9401 5.38384Z" fill="white"/>
<path fill-rule="evenodd" clip-rule="evenodd" d="M2.98879 4.19201C5.15888 2.02192 8.82094 2.18689 10.332 4.89439L11.1703 6.3965C12.157 8.16456 11.7365 10.3954 10.292 11.8575C10.2728 11.8839 10.1708 12.0323 10.1581 12.2917C10.1419 12.6228 10.2595 13.3885 11.4458 14.5748C12.6317 15.7607 13.3973 15.8785 13.7285 15.8624C13.9881 15.8498 14.1367 15.7478 14.1631 15.7285C15.6252 14.2841 17.856 13.8636 19.6241 14.8503L21.1262 15.6886C23.8337 17.1996 23.9986 20.8617 21.8286 23.0318C20.6678 24.1925 19.1244 25.2239 17.3106 25.2927C14.6227 25.3946 10.1597 24.7005 5.73991 20.2807C1.3201 15.8609 0.625979 11.3978 0.727875 8.70997C0.796634 6.89622 1.82802 5.35278 2.98879 4.19201ZM8.64009 5.83859C7.86636 4.45218 5.78717 4.13367 4.35881 5.56203C3.35732 6.56352 2.70623 7.66895 2.66398 8.78337C2.57901 11.0249 3.13241 14.9331 7.10993 18.9106C11.0874 22.8882 14.9957 23.4416 17.2372 23.3566C18.3516 23.3143 19.457 22.6632 20.4585 21.6618C21.8869 20.2334 21.5684 18.1542 20.182 17.3805L18.6799 16.5422C17.7455 16.0207 16.433 16.1986 15.5116 17.1199C15.4211 17.2104 14.845 17.7479 13.8226 17.7976C12.7761 17.8486 11.5093 17.3783 10.0758 15.9448C8.64177 14.5108 8.1717 13.2436 8.22295 12.1969C8.27301 11.1746 8.81063 10.599 8.90059 10.509C9.82195 9.58767 9.99988 8.27511 9.4784 7.3407L8.64009 5.83859Z" fill="white"/>

</svg>
